<svg width="24" height="24" viewBox="0 0 24 24" fill="none" xmlns="http://www.w3.org/2000/svg">
<path d="M15.5 21.0001C14.4179 21.0126 13.3923 20.5182 12.7282 19.6638C12.0641 18.8095 11.8379 17.6936 12.117 16.6481L5.85697 13.0701C4.77525 14.0611 3.18965 14.2709 1.88746 13.5952C0.585261 12.9195 -0.156157 11.5023 0.0313367 10.0473C0.21883 8.59226 1.2953 7.40932 2.72625 7.08583C4.15719 6.76234 5.63783 7.3672 6.43297 8.60008L12.116 5.35108C12.0424 5.07327 12.0035 4.78744 12 4.50008C11.9856 2.8268 13.1478 1.37322 14.7832 1.0189C16.4186 0.664584 18.0781 1.50683 18.7576 3.036C19.4371 4.56517 18.95 6.36131 17.5909 7.33759C16.2319 8.31387 14.3742 8.20217 13.142 7.07008L6.99097 10.5851C6.98488 10.8444 6.94863 11.1021 6.88297 11.3531L13.142 14.9301C14.2942 13.8726 16.0087 13.7094 17.3399 14.5304C18.671 15.3514 19.2946 16.9568 18.8668 18.4611C18.439 19.9654 17.0639 21.0024 15.5 21.0001ZM15.5 16.0001C14.6715 16.0001 14 16.6717 14 17.5001C14 18.3285 14.6715 19.0001 15.5 19.0001C16.3284 19.0001 17 18.3285 17 17.5001C17 16.6717 16.3284 16.0001 15.5 16.0001ZM3.49997 9.00008C2.67154 9.00008 1.99997 9.67165 1.99997 10.5001C1.99997 11.3285 2.67154 12.0001 3.49997 12.0001C4.3284 12.0001 4.99997 11.3285 4.99997 10.5001C4.99997 9.67165 4.3284 9.00008 3.49997 9.00008ZM15.5 3.00008C14.6715 3.00008 14 3.67165 14 4.50008C14 5.32851 14.6715 6.00008 15.5 6.00008C16.3284 6.00008 17 5.32851 17 4.50008C17 3.67165 16.3284 3.00008 15.5 3.00008Z" fill="#6C757D"/>
</svg>
