<svg width="12" height="13" viewBox="0 0 12 13" fill="none" xmlns="http://www.w3.org/2000/svg">
<g clip-path="url(#clip0_715_4640)">
<path d="M5.79146 0.525804C5.54771 0.572679 5.42349 0.659397 4.95005 1.11174C4.65239 1.39533 4.46724 1.55471 4.40864 1.5758C4.32661 1.60627 4.27036 1.60159 3.78286 1.53596C3.48755 1.49377 3.17583 1.45862 3.09146 1.45862C2.73989 1.45393 2.42114 1.62268 2.22427 1.9133C2.10708 2.09143 2.0813 2.17815 1.9688 2.82502C1.91724 3.12034 1.85864 3.39221 1.83989 3.43205C1.79536 3.51409 1.73442 3.55393 1.25396 3.80471C0.600049 4.1469 0.487549 4.23596 0.351611 4.51955C0.276611 4.67893 0.255518 4.79143 0.253174 5.00471C0.253174 5.20159 0.28833 5.30002 0.578955 5.89534C0.768799 6.28674 0.827393 6.42737 0.827393 6.50002C0.827393 6.57268 0.768799 6.7133 0.578955 7.10471C0.28833 7.70002 0.253174 7.79846 0.253174 7.99534C0.255518 8.20862 0.276611 8.32112 0.351611 8.48049C0.487549 8.76409 0.600049 8.85315 1.25396 9.19534C1.73442 9.44612 1.79536 9.48596 1.83989 9.56799C1.85864 9.60784 1.91724 9.87971 1.9688 10.1774C2.02036 10.4727 2.07896 10.7633 2.09536 10.8219C2.22192 11.2438 2.61567 11.5367 3.05864 11.5414C3.15005 11.5438 3.4688 11.5086 3.77114 11.4664C4.27036 11.3985 4.32661 11.3938 4.40864 11.4242C4.46724 11.4453 4.65239 11.6047 4.95005 11.8883C5.30864 12.2328 5.43052 12.3336 5.54771 12.3875C5.74692 12.4813 5.95786 12.5141 6.15474 12.4813C6.44771 12.4321 6.55552 12.3617 7.05005 11.8883C7.34771 11.6047 7.53286 11.4453 7.59146 11.4242C7.67349 11.3938 7.72974 11.3985 8.21724 11.4641C8.51255 11.5063 8.82427 11.5414 8.90864 11.5414C9.26021 11.5461 9.57896 11.3774 9.77583 11.0867C9.89302 10.9086 9.9188 10.8219 10.0313 10.175C10.0829 9.87971 10.1415 9.60784 10.1602 9.56799C10.2047 9.48362 10.2563 9.4508 10.8071 9.16252C11.3274 8.8883 11.4422 8.80627 11.5665 8.61877C11.6907 8.43596 11.7446 8.26252 11.7469 8.03284C11.7469 7.79377 11.7235 7.7258 11.4211 7.10471C11.2313 6.7133 11.1727 6.57268 11.1727 6.50002C11.1727 6.42737 11.2313 6.28674 11.4211 5.89534C11.7235 5.27424 11.7469 5.20627 11.7469 4.96721C11.7446 4.73752 11.6907 4.56409 11.5665 4.38127C11.4422 4.19377 11.3274 4.11174 10.8071 3.83752C10.2563 3.54924 10.2047 3.51643 10.1602 3.43205C10.1415 3.39221 10.0829 3.12034 10.0313 2.82502C9.9188 2.17815 9.89302 2.09143 9.77583 1.9133C9.57896 1.62268 9.26021 1.45393 8.90864 1.45862C8.82427 1.45862 8.51255 1.49377 8.21724 1.53596C7.72974 1.60159 7.67349 1.60627 7.59146 1.5758C7.53286 1.55471 7.34771 1.39533 7.05005 1.11174C6.69614 0.774241 6.56724 0.666428 6.45708 0.614866C6.23208 0.509397 6.02114 0.481272 5.79146 0.525804ZM4.88208 3.41799C5.42349 3.53283 5.83364 4.00862 5.87583 4.57112C5.92036 5.16409 5.51255 5.72659 4.92896 5.87893C4.50005 5.99143 4.05005 5.86252 3.72661 5.53909C3.34224 5.15471 3.2438 4.60158 3.47114 4.11643C3.72192 3.5844 4.30552 3.29612 4.88208 3.41799ZM8.4563 3.9219C8.6063 4.0133 8.66958 4.21721 8.59224 4.36252C8.55005 4.43987 3.92349 9.06174 3.85083 9.09924C3.77114 9.13909 3.62817 9.12971 3.5438 9.07815C3.3938 8.98674 3.33052 8.78284 3.40786 8.63752C3.44771 8.56721 8.07192 3.94065 8.14458 3.9008C8.21958 3.86096 8.37192 3.87033 8.4563 3.9219ZM7.71333 7.12346C8.0438 7.2219 8.36255 7.47971 8.50552 7.7633C8.74927 8.24377 8.66958 8.82502 8.31333 9.19768C7.90552 9.62424 7.34536 9.72971 6.83208 9.47893C6.41958 9.27502 6.15708 8.88596 6.12427 8.42893C6.07974 7.84299 6.48521 7.27815 7.06177 7.12112C7.23052 7.07659 7.5563 7.07659 7.71333 7.12346Z" fill="white"/>
<path d="M4.37106 4.13987C4.16481 4.23831 4.04997 4.41877 4.04762 4.64846C4.04528 4.97424 4.29137 5.22034 4.61716 5.22034C5.19137 5.22034 5.40231 4.47268 4.91247 4.16799C4.75309 4.0719 4.53981 4.06018 4.37106 4.13987Z" fill="white"/>
<path d="M7.25385 7.78673C6.75697 7.91564 6.65385 8.56251 7.08744 8.8297C7.24213 8.9258 7.44135 8.93986 7.61244 8.8672C8.05307 8.67736 8.06947 8.05392 7.63822 7.83595C7.53979 7.78439 7.35229 7.76095 7.25385 7.78673Z" fill="white"/>
</g>
<defs>
<clipPath id="clip0_715_4640">
<rect width="12" height="12" fill="white" transform="translate(0 0.5)"/>
</clipPath>
</defs>
</svg>
