<svg width="19" height="18" viewBox="0 0 19 18" fill="none" xmlns="http://www.w3.org/2000/svg">
<g clip-path="url(#clip0_392_203)">
<path d="M18.3246 9.20737C18.3246 8.59558 18.275 7.98048 18.1691 7.3786H9.68005V10.8443H14.5414C14.3396 11.9621 13.6915 12.9509 12.7423 13.5792V15.828H15.6426C17.3457 14.2605 18.3246 11.9456 18.3246 9.20737Z" fill="#4285F4"/>
<path d="M9.68008 18.0006C12.1074 18.0006 14.1544 17.2036 15.6459 15.8279L12.7457 13.5792C11.9388 14.1281 10.8971 14.439 9.68338 14.439C7.33541 14.439 5.3446 12.8549 4.63029 10.7252H1.63745V13.0434C3.16529 16.0826 6.27717 18.0006 9.68008 18.0006V18.0006Z" fill="#34A853"/>
<path d="M4.62696 10.7252C4.24996 9.60739 4.24996 8.39703 4.62696 7.27927V4.96106H1.63743C0.360928 7.50414 0.360928 10.5003 1.63743 13.0434L4.62696 10.7252V10.7252Z" fill="#FBBC04"/>
<path d="M9.68007 3.56225C10.9632 3.5424 12.2033 4.02523 13.1326 4.9115L15.7021 2.34196C14.0751 0.814129 11.9156 -0.0258495 9.68007 0.000606499C6.27717 0.000606499 3.16528 1.91867 1.63745 4.96111L4.62698 7.27931C5.33798 5.1463 7.33211 3.56225 9.68007 3.56225V3.56225Z" fill="#EA4335"/>
</g>
<defs>
<clipPath id="clip0_392_203">
<rect width="18" height="18" fill="white" transform="translate(0.5)"/>
</clipPath>
</defs>
</svg>
