<svg width="16" height="17" viewBox="0 0 16 17" fill="none" xmlns="http://www.w3.org/2000/svg">
<path fill-rule="evenodd" clip-rule="evenodd" d="M7.99992 15.1667C11.6818 15.1667 14.6666 12.1819 14.6666 8.50004C14.6666 4.81814 11.6818 1.83337 7.99992 1.83337C4.31802 1.83337 1.33325 4.81814 1.33325 8.50004C1.33325 12.1819 4.31802 15.1667 7.99992 15.1667ZM7.99992 10.1592V12.2299C7.99992 13.1206 7.99992 13.5659 8.19614 13.6091C8.39237 13.6523 8.57946 13.2482 8.95365 12.44L10.1257 9.90826C10.6173 8.84659 10.863 8.31576 10.6875 7.90614C10.6444 7.80558 10.5851 7.71278 10.5119 7.63142C10.214 7.30004 9.629 7.30004 8.45907 7.30004C8.26282 7.30004 8.1647 7.30004 8.09722 7.24799C8.08026 7.2349 8.06505 7.2197 8.05197 7.20274C7.99992 7.13526 7.99992 7.03714 7.99992 6.84089V4.77017C7.99992 3.8795 7.99992 3.43417 7.80369 3.39096C7.60747 3.34774 7.42037 3.75186 7.04619 4.56011L5.8741 7.09182C5.38258 8.15349 5.13683 8.68432 5.31236 9.09394C5.35546 9.1945 5.41476 9.2873 5.48791 9.36866C5.78587 9.70004 6.37084 9.70004 7.54076 9.70004C7.73702 9.70004 7.83514 9.70004 7.90262 9.7521C7.91958 9.76518 7.93478 9.78038 7.94786 9.79734C7.99992 9.86482 7.99992 9.96294 7.99992 10.1592Z" fill="#28A745"/>
</svg>
