<svg width="172" height="99" viewBox="0 0 172 99" fill="none" xmlns="http://www.w3.org/2000/svg">
<path d="M162.102 0.0711975H9.89822C4.85467 0.078658 0.766124 4.16719 0.758484 9.21093V65.915C0.765944 70.9586 4.85448 75.0471 9.89822 75.0547H12.696V77.8525C12.7034 82.8961 16.792 86.9846 21.8357 86.9922H49.4925L60.9376 98.4373C61.4151 98.9148 62.1388 99.0566 62.7655 98.8029C63.3923 98.5418 63.8026 97.93 63.8026 97.2511V86.9923H108.195V97.2511C108.195 97.93 108.605 98.5418 109.232 98.8029C109.859 99.0566 110.582 98.9148 111.06 98.4373L122.505 86.9922H150.162C155.205 86.9848 159.294 82.8962 159.301 77.8525V75.0547H162.099C167.143 75.0473 171.231 70.9587 171.239 65.915V9.21093C171.232 4.16738 167.143 0.0788375 162.099 0.0711975H162.102ZM62.1253 83.6337C61.6776 83.6337 61.2523 83.8128 60.939 84.1261C60.6256 84.4395 60.4466 84.8648 60.4466 85.3124V93.1986L51.3741 84.1261C51.0607 83.8127 50.6354 83.6337 50.1878 83.6337H21.8357C18.6424 83.6337 16.0536 81.0447 16.0536 77.8515V75.0538H108.196V83.6339L62.1253 83.6337ZM155.946 77.8515C155.946 81.0449 153.357 83.6337 150.164 83.6337H125.863L134.443 75.0536H155.946L155.946 77.8515ZM167.884 65.9141C167.884 69.1074 165.295 71.6962 162.102 71.6962H133.75C133.302 71.6962 132.877 71.8753 132.563 72.1886L111.553 93.1986V73.3747C111.553 72.4496 110.8 71.696 109.875 71.696H9.89764C6.70431 71.696 4.1155 69.107 4.1155 65.9139V9.20978C4.1155 6.01645 6.7045 3.42764 9.89764 3.42764H162.102C165.295 3.42764 167.884 6.01664 167.884 9.20978V65.9141Z" fill="#28A745"/>
<path d="M38.6969 33.0569L30.7884 31.9079L27.2593 24.7529V24.7454C26.9757 24.1784 26.3938 23.8128 25.7522 23.8128C25.118 23.8128 24.5286 24.1784 24.2525 24.7454L20.7159 31.9079L12.8223 33.0569C12.1881 33.1464 11.6584 33.5866 11.4644 34.191C11.263 34.8028 11.4271 35.4668 11.8822 35.9144L17.5973 41.4878L16.2618 49.3517C16.1574 49.9784 16.4185 50.62 16.9333 50.9931C17.4481 51.3661 18.1345 51.4184 18.7015 51.1199L25.7595 47.4118L32.825 51.1199H32.8325C33.0712 51.2468 33.3398 51.3139 33.6084 51.3139C34.1008 51.3139 34.5709 51.0975 34.8917 50.717C35.2125 50.3365 35.3468 49.8366 35.2648 49.3517L33.9143 41.4878L39.6294 35.9144C40.0845 35.4668 40.2487 34.8028 40.0547 34.1984C39.8533 33.5866 39.331 33.1464 38.6968 33.0569L38.6969 33.0569ZM30.9375 39.6972C30.5421 40.0852 30.363 40.6448 30.46 41.1894L31.3852 46.5762L26.5355 44.0321L26.5281 44.0246C26.0356 43.7784 25.4612 43.7784 24.9687 44.0246L20.119 46.5613L21.089 41.1894C21.1859 40.6373 21.0069 40.0852 20.6115 39.6972L16.6795 35.8847L22.0812 35.1013C22.6259 35.0192 23.1034 34.676 23.3496 34.1836L25.7668 29.2892L28.1767 34.1836C28.4229 34.676 28.8929 35.0192 29.4451 35.1013L34.8467 35.8847L30.9375 39.6972Z" fill="#28A745"/>
<path d="M68.8177 33.0569L60.924 31.9079L57.3875 24.7529V24.7454C57.104 24.1784 56.522 23.8128 55.8804 23.8128C55.2462 23.8128 54.6568 24.1784 54.3807 24.7454L50.8442 31.9005L42.9505 33.0495L42.9431 33.0569C42.3164 33.1464 41.7941 33.5866 41.5926 34.1984C41.3987 34.8028 41.5628 35.4668 42.0179 35.9145L47.733 41.4878L46.3826 49.3517C46.2781 49.9784 46.5318 50.6201 47.0541 50.9931C47.5689 51.3662 48.2553 51.4184 48.8223 51.1199L55.8878 47.4119L62.9458 51.1199C63.5128 51.4184 64.1992 51.3662 64.714 50.9931C65.2288 50.6201 65.49 49.9784 65.3781 49.3517L64.0276 41.4878L69.7427 35.9145H69.7502C70.2053 35.4668 70.3695 34.8028 70.168 34.1984C69.974 33.5867 69.4518 33.1465 68.8176 33.0569H68.8177ZM61.0583 39.6972C60.6629 40.0852 60.4764 40.6448 60.5733 41.1894L61.4985 46.5687L56.6488 44.0321V44.0246C56.1564 43.7784 55.5745 43.7784 55.082 44.0246L50.2324 46.5613L51.1575 41.1819V41.1894C51.2545 40.6448 51.0754 40.0852 50.6725 39.6972L46.8004 35.8847L52.2021 35.1013C52.7467 35.0192 53.2168 34.676 53.4704 34.1836L55.8877 29.2892L58.305 34.1836H58.2976C58.5438 34.676 59.0138 35.0192 59.5585 35.1013L64.9601 35.8847L61.0583 39.6972Z" fill="#28A745"/>
<path d="M98.9368 33.0569L91.0432 31.9079L87.4917 24.7454C87.2082 24.1784 86.6263 23.8128 85.9846 23.8128C85.343 23.8128 84.761 24.1784 84.4775 24.7454L80.9484 31.9005L73.0548 33.0495L73.0473 33.0569C72.4206 33.139 71.8909 33.5866 71.6894 34.191C71.4955 34.8028 71.6596 35.4668 72.1147 35.9144L77.8298 41.4878L76.4869 49.3517C76.3749 49.9784 76.6361 50.62 77.1509 50.9931C77.6657 51.3661 78.3521 51.4184 78.9191 51.1199L85.9995 47.4119L93.065 51.1199C93.3037 51.2468 93.5723 51.3139 93.8484 51.3139H93.8409C94.3408 51.3139 94.8108 51.0975 95.1242 50.717C95.445 50.3365 95.5793 49.8366 95.4972 49.3517L94.1543 41.4878L99.8694 35.9145H99.8619C100.325 35.4668 100.489 34.8028 100.295 34.191C100.093 33.5866 99.5635 33.139 98.9293 33.0569L98.9368 33.0569ZM91.1775 39.6972C90.7746 40.0852 90.5955 40.6447 90.6925 41.1894L91.6177 46.5687L86.768 44.032L86.7605 44.0246C86.2756 43.7784 85.6936 43.7784 85.2087 44.0246L80.359 46.5613L81.2841 41.1819L81.2767 41.1894C81.3737 40.6447 81.1946 40.0852 80.7917 39.6972L76.9121 35.8847L82.3138 35.1013C82.8659 35.0192 83.3359 34.676 83.5821 34.1836L85.9994 29.2817L88.4167 34.1761V34.1836C88.663 34.676 89.133 35.0192 89.6851 35.1013L95.0868 35.8847L91.1775 39.6972Z" fill="#28A745"/>
<path d="M129.05 33.0569L121.156 31.9079L117.62 24.7529V24.7454C117.344 24.1784 116.754 23.8128 116.12 23.8128C115.479 23.8128 114.897 24.1784 114.613 24.7454L111.077 31.9005L103.183 33.0495V33.0569C102.549 33.1464 102.026 33.5866 101.832 34.1984C101.631 34.8028 101.795 35.4668 102.25 35.9145L107.965 41.4879L106.615 49.3517C106.51 49.9784 106.772 50.6201 107.286 50.9931C107.801 51.3662 108.488 51.4184 109.055 51.12L116.113 47.4119L123.178 51.12C123.424 51.2468 123.693 51.3139 123.962 51.3139C124.454 51.3139 124.924 51.0976 125.245 50.7171C125.566 50.3365 125.7 49.8367 125.618 49.3517L124.267 41.4879L129.983 35.9145C130.438 35.4668 130.602 34.8028 130.408 34.1985C130.206 33.5867 129.684 33.1465 129.05 33.0569L129.05 33.0569ZM121.291 39.6972C120.895 40.0852 120.716 40.6448 120.813 41.1894L121.738 46.5687L116.889 44.0321V44.0246C116.396 43.7784 115.814 43.7784 115.322 44.0246L110.472 46.5613L111.397 41.182V41.1894C111.494 40.6448 111.308 40.0852 110.912 39.6972L107.033 35.8847L112.434 35.1013H112.442C112.987 35.0192 113.457 34.676 113.695 34.1836L116.113 29.2892L118.53 34.1836C118.784 34.676 119.254 35.0192 119.798 35.1013L125.2 35.8847L121.291 39.6972Z" fill="#28A745"/>
<path d="M159.17 33.0569L151.284 31.9079L147.748 24.7529V24.7454C147.472 24.1784 146.882 23.8128 146.248 23.8128C145.606 23.8128 145.024 24.1784 144.741 24.7454L141.212 31.9079L133.311 33.0569C132.676 33.1464 132.154 33.5866 131.96 34.1984C131.759 34.8028 131.923 35.4668 132.378 35.9145L138.093 41.4878L136.735 49.3517C136.653 49.8367 136.787 50.3365 137.108 50.717C137.429 51.0975 137.899 51.3139 138.392 51.3139C138.66 51.3139 138.929 51.2467 139.168 51.1199L146.233 47.4118L153.291 51.1199H153.298C153.866 51.4184 154.552 51.3661 155.067 50.9931C155.582 50.62 155.843 49.9784 155.731 49.3517L154.388 41.4878L160.103 35.9144C160.558 35.4668 160.722 34.8028 160.528 34.191C160.327 33.5866 159.804 33.1464 159.17 33.0569H159.17ZM151.411 39.6972C151.016 40.0852 150.837 40.6448 150.926 41.1894L151.851 46.5687L147.002 44.0321V44.0246C146.517 43.7709 145.927 43.7709 145.442 44.0246L140.592 46.5687L141.518 41.1819L141.51 41.1894C141.607 40.6448 141.428 40.0852 141.033 39.6972L137.153 35.8847L142.555 35.1013C143.099 35.0192 143.577 34.676 143.823 34.1836L146.24 29.2892L148.673 34.1836C148.919 34.676 149.389 35.0192 149.941 35.1013L155.343 35.8847L151.411 39.6972Z" fill="#28A745"/>
</svg>
