<svg width="100" height="32" viewBox="0 0 100 32" fill="none" xmlns="http://www.w3.org/2000/svg">
<g clip-path="url(#clip0_809_5563)">
<path d="M65.1336 0.0390167C58.0332 0.0390167 51.688 3.66491 51.688 10.364C51.688 18.0466 62.9415 18.5772 62.9415 22.4367C62.9415 24.0618 61.0512 25.5165 57.8227 25.5165C53.2408 25.5165 49.8163 23.4838 49.8163 23.4838L48.3511 30.244C48.3511 30.244 52.296 31.961 57.5336 31.961C65.2966 31.961 71.4051 28.157 71.4051 21.3435C71.4051 13.2254 60.1048 12.7105 60.1048 9.1283C60.1048 7.85511 61.6565 6.46031 64.8758 6.46031C68.508 6.46031 71.4716 7.93864 71.4716 7.93864L72.9056 1.40955C72.9056 1.40955 69.6811 0.0390167 65.1336 0.0390167ZM0.171972 0.531825L0 1.51734C0 1.51734 2.98719 2.05591 5.67758 3.13038C9.14164 4.36235 9.38849 5.07962 9.97187 7.30727L16.3292 31.4528H24.8516L37.9807 0.531825H29.478L21.0417 21.5551L17.5993 3.73473C17.2836 1.69525 15.6844 0.531825 13.7269 0.531825H0.171972V0.531825ZM41.3997 0.531825L34.7296 31.4527H42.8376L49.4843 0.531726H41.3997V0.531825ZM86.6208 0.531825C84.6657 0.531825 83.6298 1.5631 82.8697 3.3652L70.9909 31.4527H79.4936L81.1386 26.7714H91.4973L92.4977 31.4527H100L93.455 0.531825H86.6208V0.531825ZM87.7266 8.8857L90.2469 20.4887H83.4948L87.7266 8.8857Z" fill="white"/>
</g>
<defs>
<clipPath id="clip0_809_5563">
<rect width="100" height="32" fill="white"/>
</clipPath>
</defs>
</svg>
